<?xml version="1.0" standalone="no"?>
<!DOCTYPE svg PUBLIC "-//W3C//DTD SVG 20010904//EN"
 "http://www.w3.org/TR/2001/REC-SVG-20010904/DTD/svg10.dtd">
<svg version="1.0" xmlns="http://www.w3.org/2000/svg"
 width="473.000000pt" height="473.000000pt" viewBox="0 0 473.000000 473.000000"
 preserveAspectRatio="xMidYMid meet">
<metadata>
Created by potrace 1.11, written by Peter Selinger 2001-2013
</metadata>
<g transform="translate(0.000000,473.000000) scale(0.100000,-0.100000)"
fill="#000000" stroke="none">
<path d="M2179 4696 c-2 -2 -35 -7 -73 -11 -38 -3 -94 -11 -125 -16 -31 -6
-69 -12 -86 -15 -50 -9 -145 -33 -235 -61 -47 -15 -87 -27 -90 -28 -3 -1 -14
-5 -25 -10 -11 -4 -53 -21 -92 -36 -186 -73 -406 -202 -579 -341 -88 -70 -281
-259 -335 -327 -19 -24 -39 -48 -44 -55 -15 -16 -105 -143 -136 -191 -107
-166 -216 -410 -272 -610 -63 -225 -82 -371 -82 -625 0 -154 6 -260 19 -325 2
-11 7 -42 10 -70 4 -27 14 -77 23 -110 8 -33 17 -69 19 -80 2 -11 17 -61 33
-110 94 -291 230 -539 436 -795 57 -71 282 -284 367 -348 172 -129 389 -253
543 -312 33 -12 74 -28 90 -35 59 -26 280 -88 355 -100 19 -3 46 -8 60 -10 25
-5 42 -8 155 -22 79 -10 410 -10 504 0 65 7 150 21 256 42 286 56 637 213 890
398 117 86 175 136 295 257 368 369 592 838 657 1372 10 80 10 414 0 493 -11
92 -14 108 -20 140 -3 17 -8 46 -11 65 -10 65 -74 285 -111 380 -46 117 -138
300 -202 400 -44 69 -120 178 -133 190 -3 3 -23 28 -44 55 -39 50 -239 252
-286 290 -14 11 -48 39 -77 63 -28 23 -55 42 -61 42 -6 0 -12 4 -14 9 -1 5
-46 36 -98 70 -116 76 -341 188 -473 236 -90 33 -298 91 -357 100 -14 2 -70
11 -125 20 -89 15 -514 32 -526 21z"/>
</g>
</svg>
