<?xml version="1.0" standalone="no"?>
<!DOCTYPE svg PUBLIC "-//W3C//DTD SVG 20010904//EN"
 "http://www.w3.org/TR/2001/REC-SVG-20010904/DTD/svg10.dtd">
<svg version="1.0" xmlns="http://www.w3.org/2000/svg"
 width="402.000000pt" height="402.000000pt" viewBox="0 0 402.000000 402.000000"
 preserveAspectRatio="xMidYMid meet">
<metadata>
Created by potrace 1.14, written by Peter Selinger 2001-2017
</metadata>
<g transform="translate(0.000000,402.000000) scale(0.100000,-0.100000)"
fill="#000000" stroke="none">
<path d="M1998 3995 c-2 -1 -52 -5 -113 -9 -321 -18 -588 -107 -825 -274 -59
-42 -222 -197 -260 -247 -117 -155 -217 -357 -256 -517 -2 -10 -6 -28 -9 -40
-55 -228 -66 -501 -26 -691 47 -228 195 -584 322 -775 16 -24 29 -45 29 -48 0
-15 226 -346 329 -484 99 -132 291 -374 310 -390 3 -3 35 -39 71 -80 35 -41
67 -77 70 -80 3 -3 27 -30 54 -60 84 -95 250 -261 271 -272 28 -16 83 -11 114
9 14 9 60 52 101 96 41 44 89 94 105 111 17 18 56 61 87 96 31 36 71 81 88
100 18 19 48 55 68 80 21 25 44 52 52 60 9 8 65 78 126 155 447 567 711 1039
804 1437 35 151 42 283 27 468 -21 252 -102 508 -222 701 -83 132 -229 288
-353 375 -134 95 -392 209 -520 230 -15 2 -47 9 -72 14 -71 15 -118 20 -225
26 -55 3 -110 6 -122 8 -13 2 -24 2 -25 1z m197 -229 c22 -3 63 -8 90 -12 28
-3 86 -14 130 -25 385 -95 656 -327 805 -689 30 -74 76 -235 85 -301 16 -116
19 -156 19 -259 0 -113 -6 -177 -25 -255 -5 -22 -12 -49 -14 -59 -29 -126
-134 -364 -248 -565 -64 -114 -206 -335 -266 -416 -21 -27 -78 -104 -127 -170
-49 -66 -96 -127 -104 -136 -8 -9 -60 -71 -115 -139 -55 -67 -109 -132 -120
-144 -11 -12 -51 -58 -90 -101 -38 -43 -100 -110 -136 -148 l-65 -69 -106 113
c-139 150 -262 293 -424 494 -278 342 -538 757 -660 1051 -96 233 -125 373
-119 579 5 163 18 260 46 351 5 17 11 40 13 50 7 35 67 183 98 241 51 96 106
171 200 273 82 89 248 195 390 250 62 24 198 60 248 67 19 2 41 6 49 9 7 2 52
7 100 10 47 4 87 7 88 8 5 4 220 -3 258 -8z"/>
<path d="M1939 3208 c-129 -16 -234 -70 -329 -168 -98 -102 -148 -214 -155
-347 -13 -255 137 -477 378 -561 126 -43 301 -35 417 20 234 112 365 381 305
623 -9 33 -17 68 -20 78 -10 44 -74 137 -134 197 -126 124 -291 181 -462 158z
m197 -239 c70 -27 143 -93 179 -166 27 -52 30 -68 30 -148 0 -111 -23 -165
-100 -241 -150 -147 -399 -122 -513 52 -113 169 -55 396 125 489 89 46 181 50
279 14z"/>
</g>
</svg>
