<?xml version="1.0" standalone="no"?>
<!DOCTYPE svg PUBLIC "-//W3C//DTD SVG 20010904//EN"
 "http://www.w3.org/TR/2001/REC-SVG-20010904/DTD/svg10.dtd">
<svg version="1.0" xmlns="http://www.w3.org/2000/svg"
 width="396.000000pt" height="396.000000pt" viewBox="0 0 396.000000 396.000000"
 preserveAspectRatio="xMidYMid meet">
<metadata>
Created by potrace 1.14, written by Peter Selinger 2001-2017
</metadata>
<g transform="translate(0.000000,396.000000) scale(0.100000,-0.100000)"
fill="#000000" stroke="none">
<path d="M196 3923 c-60 -18 -130 -83 -153 -141 -17 -45 -18 -130 -17 -1812
l0 -1765 23 -48 c27 -55 67 -92 131 -120 44 -20 65 -20 1805 -20 l1760 0 48
21 c57 25 102 71 130 132 20 45 20 57 21 1345 1 715 -2 1317 -5 1339 -6 35
-56 88 -515 548 -280 280 -518 514 -529 521 -30 17 -2640 17 -2699 0z m564
-798 c0 -624 -2 -608 63 -642 29 -15 113 -17 1042 -17 945 0 1012 2 1037 18
63 41 61 23 61 548 0 263 3 478 6 478 3 0 169 -164 368 -363 l362 -363 -2
-1259 -2 -1260 -182 -2 -183 -2 0 686 c0 751 2 730 -59 766 -27 16 -119 17
-1286 17 -1386 0 -1296 4 -1332 -63 -15 -29 -17 -91 -17 -719 l0 -688 -183 1
-183 1 0 1714 0 1714 245 0 245 0 0 -565z m980 245 c0 -355 2 -365 63 -397 47
-24 543 -26 597 -2 72 32 73 34 74 393 l1 321 120 0 120 0 1 -488 2 -487 -612
2 -611 3 -1 488 0 487 123 0 123 0 0 -320z m490 75 l0 -244 -122 2 -123 2 -1
243 0 242 123 0 123 0 0 -245z m853 -1969 c2 -6 3 -281 3 -611 l-1 -600 -1102
-2 -1102 -2 0 613 -1 613 1100 0 c783 0 1100 -3 1103 -11z"/>
<path d="M1249 1221 c-1 -29 -1 -189 0 -208 1 -9 178 -11 734 -10 l732 2 0
120 0 120 -732 1 -733 0 -1 -25z"/>
<path d="M1249 735 c-1 -22 -1 -180 0 -207 1 -17 43 -18 730 -18 574 0 730 3
733 13 2 6 4 62 4 122 l-1 110 -732 0 c-732 1 -733 1 -734 -20z"/>
</g>
</svg>
